<svg xmlns="http://www.w3.org/2000/svg" width="1100" height="835" viewBox="0 0 1100 835">
<rect width="1100" height="835" fill="#ffffff"/>
<g font-family="Arial,sans-serif" fill="#14213d">
<text x="60" y="38" font-size="25">k1: frozen k2 cooling rates transferred across cells</text>
<text x="60" y="64" font-size="15">Previously viewed separate cell. No k1 fitting. No independent thermal validation.</text>
<path d="M85,350.00H1035" stroke="#dde2e8"/>
<text x="48" y="355.00" font-size="13">25</text>
<path d="M85,271.67H1035" stroke="#dde2e8"/>
<text x="48" y="276.67" font-size="13">27</text>
<path d="M85,193.33H1035" stroke="#dde2e8"/>
<text x="48" y="198.33" font-size="13">29</text>
<path d="M85,115.00H1035" stroke="#dde2e8"/>
<text x="48" y="120.00" font-size="13">31</text>
<path d="M85.00,115V350" stroke="#aab3c0" stroke-dasharray="4 4"/>
<text x="85.00" y="373" text-anchor="middle" font-size="13">60</text>
<path d="M229.92,115V350" stroke="#aab3c0" stroke-dasharray="4 4"/>
<text x="229.92" y="373" text-anchor="middle" font-size="13">600</text>
<path d="M551.95,115V350" stroke="#aab3c0" stroke-dasharray="4 4"/>
<text x="551.95" y="373" text-anchor="middle" font-size="13">1800</text>
<path d="M1035.00,115V350" stroke="#aab3c0" stroke-dasharray="4 4"/>
<text x="1035.00" y="373" text-anchor="middle" font-size="13">3600</text>
<polyline points="85.00,131.25 86.07,135.05 87.42,138.10 88.76,139.76 90.10,140.19 91.44,141.20 92.78,144.09 94.12,149.31 95.47,152.09 96.81,150.86 98.15,154.96 99.49,156.12 100.83,160.10 102.18,158.98 103.52,162.88 104.86,163.58 106.20,166.66 107.54,168.59 108.88,168.17 110.23,171.18 111.57,172.32 112.91,175.31 114.25,175.37 115.59,179.70 116.94,182.83 118.28,183.63 119.62,184.81 120.96,185.71 122.30,187.50 123.64,189.87 124.99,192.05 126.33,193.23 127.67,196.89 129.01,197.49 130.35,197.96 131.70,202.13 133.04,203.08 134.38,204.62 135.72,203.14 137.06,206.04 138.40,208.03 139.75,210.54 141.09,209.76 142.43,214.59 143.77,216.64 145.11,218.15 146.45,217.39 147.80,219.53 149.14,221.24 150.48,224.07 151.82,222.55 153.16,224.73 154.51,228.32 155.85,229.58 157.19,229.09 158.53,229.85 159.87,229.91 161.21,233.97 162.56,237.14 163.90,237.52 165.24,235.81 166.58,236.87 167.92,240.45 169.27,241.49 170.61,242.24 171.95,243.64 173.29,242.99 174.63,245.78 175.97,246.17 177.32,248.93 178.66,248.47 180.00,251.27 181.34,249.91 182.68,251.94 184.03,253.18 185.37,252.12 186.71,254.52 188.05,254.71 189.39,256.63 190.73,257.70 192.08,255.58 193.42,258.22 194.76,259.65 196.10,260.58 197.44,260.43 198.79,262.36 200.13,264.73 201.47,265.67 202.81,264.95 204.15,266.06 205.49,266.97 206.84,269.12 208.18,268.20 209.52,270.03 210.86,272.03 212.20,272.36 213.55,271.32 214.89,274.10 216.23,274.54 217.57,275.29 218.91,275.60 220.25,275.32 221.60,277.24 222.94,278.09 224.28,279.72 225.62,278.75 226.96,279.67 228.31,281.11 229.65,281.56 230.99,282.01 232.33,282.06 233.67,282.46 235.01,281.48 236.36,283.49 237.70,285.09 239.04,284.92 240.38,287.52 241.72,286.92 243.07,288.71 244.41,289.44 245.75,291.67 247.09,290.14 248.43,289.98 249.77,289.86 251.12,289.11 252.46,288.02 253.80,288.92 255.14,286.51 256.48,285.15 257.82,287.23 259.17,286.56 260.51,287.04 261.85,286.74 263.19,285.91 264.53,288.56 265.88,288.25 267.22,289.12 268.56,290.66 269.90,292.23 271.24,293.38 272.58,296.53 273.93,297.52 275.27,297.83 276.61,299.50 277.95,301.90 279.29,305.18 280.64,305.61 281.98,307.49 283.32,310.60 284.66,307.91 286.00,310.24 287.34,311.51 288.69,310.95 290.03,312.90 291.37,313.95 292.71,315.63 294.05,314.37 295.40,316.87 296.74,316.93 298.08,316.90 299.42,317.14 300.76,317.42 302.10,316.69 303.45,317.14 304.79,315.85 306.13,317.63 307.47,317.03 308.81,315.71 310.16,316.68 311.50,313.96 312.84,312.71 314.18,311.45 315.52,309.60 316.86,308.41 318.21,304.54 319.55,303.04 320.89,302.17 322.23,298.26 323.57,296.32 324.92,293.93 326.26,288.88 327.60,286.24 328.94,283.89 330.28,280.54 331.62,280.59 332.97,278.59 334.31,281.03 335.65,283.00 336.99,287.63 338.33,291.58 339.68,293.77 341.02,296.20 342.36,297.15 343.70,298.83 345.04,298.90 346.38,301.90 347.73,302.03 349.07,303.26 350.41,303.00 351.75,304.50 353.09,303.34 354.44,305.45 355.78,305.45 357.12,306.93 358.46,309.13 359.80,307.68 361.14,309.72 362.49,312.63 363.83,311.82 365.17,313.68 366.51,313.27 367.85,316.58 369.20,317.62 370.54,318.67 371.88,319.83 373.22,318.06 374.56,318.36 375.90,318.57 377.25,319.01 378.59,320.94 379.93,319.93 381.27,320.98 382.61,319.89 383.95,320.01 385.30,320.98 386.64,321.26 387.98,318.73 389.32,320.75 390.66,318.41 392.01,319.98 393.35,320.01 394.69,319.50 396.03,321.89 397.37,320.01 398.71,321.67 400.06,321.29 401.40,323.76 402.74,322.33 404.08,322.98 405.42,323.53 406.77,322.66 408.11,324.42 409.45,323.34 410.79,324.21 412.13,325.04 413.47,324.21 414.82,323.42 416.16,323.58 417.50,325.22 418.84,323.78 420.18,323.74 421.53,321.53 422.87,323.35 424.21,323.43 425.55,324.39 426.89,321.89 428.23,322.03 429.58,321.06 430.92,322.78 432.26,324.48 433.60,322.74 434.94,323.40 436.29,322.02 437.63,323.56 438.97,323.23 440.31,321.78 441.65,322.14 442.99,322.50 444.34,323.06 445.68,322.95 447.02,323.74 448.36,323.11 449.70,322.34 451.05,323.23 452.39,322.83 453.73,322.24 455.07,321.83 456.41,323.03 457.75,322.59 459.10,323.75 460.44,322.62 461.78,322.16 463.12,324.00 464.46,323.16 465.81,323.71 467.15,324.80 468.49,322.75 469.83,323.48 471.17,323.56 472.51,324.32 473.86,322.92 475.20,322.22 476.54,322.91 477.88,322.11 479.22,323.20 480.56,322.71 481.91,325.92 483.25,324.15 484.59,325.64 485.93,322.06 487.27,324.60 488.62,324.15 489.96,324.93 491.30,323.12 492.64,323.82 493.98,322.79 495.33,323.24 496.67,323.59 498.01,322.95 499.35,324.76 500.69,322.35 502.03,323.52 503.38,322.77 504.72,323.59 506.06,321.84 507.40,322.16 508.74,322.80 510.08,321.80 511.43,322.73 512.77,322.56 514.11,322.40 515.45,322.64 516.79,323.24 518.14,323.69 519.48,322.40 520.82,324.11 522.16,323.53 523.50,322.16 524.84,322.77 526.19,324.77 527.53,323.72 528.87,324.85 530.21,323.17 531.55,323.04 532.90,322.92 534.24,323.76 535.58,323.64 536.92,322.79 538.26,323.68 539.60,324.09 540.95,321.52 542.29,322.43 543.63,323.45 544.97,323.76 546.31,322.68 547.66,322.55 549.00,323.20 550.34,324.56 551.68,322.48 553.02,323.60 554.36,323.25 555.71,323.69 557.05,322.92 558.39,323.41 559.73,323.45 561.07,322.88 562.42,322.61 563.76,323.77 565.10,323.45 566.44,322.61 567.78,323.53 569.12,324.09 570.47,322.80 571.81,322.21 573.15,322.57 574.49,323.97 575.83,323.98 577.18,323.93 578.52,324.66 579.86,324.21 581.20,324.09 582.54,324.05 583.88,323.08 585.23,323.17 586.57,323.84 587.91,325.46 589.25,325.30 590.59,325.21 591.94,324.49 593.28,322.49 594.62,323.74 595.96,325.54 597.30,324.69 598.64,323.17 599.99,323.37 601.33,323.69 602.67,321.72 604.01,322.77 605.35,322.97 606.69,323.28 608.04,324.89 609.38,321.80 610.72,323.53 612.06,324.62 613.40,324.66 614.75,324.29 616.09,322.07 617.43,323.36 618.77,324.28 620.11,325.71 621.45,323.13 622.80,323.46 624.14,323.65 625.48,325.66 626.82,323.69 628.16,325.41 629.51,322.65 630.85,323.01 632.19,323.46 633.53,322.85 634.87,322.85 636.21,324.97 637.56,323.45 638.90,323.58 640.24,322.50 641.58,323.17 642.92,323.49 644.27,325.26 645.61,323.33 646.95,323.46 648.29,322.69 649.63,323.61 650.97,322.90 652.32,323.70 653.66,322.52 655.00,324.29 656.34,322.53 657.68,323.09 659.03,324.46 660.37,324.13 661.71,323.37 663.05,322.90 664.39,324.74 665.73,324.50 667.08,323.18 668.42,323.06 669.76,323.69 671.10,324.57 672.44,324.34 673.79,324.29 675.13,325.54 676.47,324.09 677.81,325.39 679.15,324.89 680.49,324.77 681.84,325.34 683.18,324.00 684.52,324.34 685.86,323.70 687.20,324.50 688.55,324.05 689.89,323.45 691.23,324.17 692.57,325.65 693.91,325.14 695.25,323.77 696.60,324.40 697.94,325.94 699.28,324.82 700.62,323.74 701.96,324.52 703.31,323.62 704.65,324.74 705.99,325.46 707.33,325.26 708.67,323.32 710.01,324.95 711.36,324.23 712.70,325.03 714.04,324.67 715.38,325.10 716.72,326.63 718.07,325.26 719.41,325.54 720.75,323.90 722.09,325.11 723.43,326.95 724.77,326.34 726.12,327.03 727.46,324.11 728.80,325.66 730.14,325.14 731.48,325.47 732.82,324.82 734.17,323.82 735.51,324.26 736.85,323.81 738.19,324.58 739.53,325.35 740.88,324.83 742.22,325.27 743.56,325.51 744.90,324.57 746.24,326.47 747.58,325.39 748.93,325.58 750.27,325.31 751.61,326.34 752.95,325.75 754.29,325.77 755.64,325.95 756.98,326.79 758.32,325.71 759.66,324.46 761.00,326.42 762.34,324.74 763.69,325.07 765.03,326.62 766.37,325.75 767.71,325.63 769.05,325.80 770.40,325.66 771.74,324.55 773.08,327.02 774.42,325.99 775.76,326.63 777.10,326.26 778.45,326.74 779.79,326.74 781.13,326.30 782.47,326.67 783.81,324.66 785.16,324.70 786.50,326.79 787.84,326.35 789.18,326.76 790.52,325.87 791.86,326.34 793.21,326.95 794.55,328.71 795.89,325.86 797.23,327.24 798.57,327.30 799.92,327.35 801.26,327.87 802.60,326.74 803.94,328.99 805.28,327.75 806.62,326.90 807.97,326.79 809.31,328.48 810.65,327.22 811.99,327.51 813.33,327.35 814.68,327.07 816.02,327.63 817.36,326.60 818.70,327.23 820.04,328.24 821.38,328.71 822.73,328.46 824.07,326.55 825.41,328.35 826.75,327.79 828.09,328.26 829.44,330.85 830.78,330.12 832.12,329.20 833.46,329.55 834.80,329.71 836.14,329.75 837.49,328.75 838.83,328.67 840.17,328.47 841.51,328.80 842.85,328.26 844.19,328.10 845.54,328.59 846.88,329.16 848.22,328.95 849.56,330.72 850.90,330.11 852.25,328.87 853.59,329.27 854.93,330.52 856.27,329.27 857.61,328.75 858.96,328.76 860.30,329.16 861.64,330.57 862.98,329.99 864.32,328.63 865.66,329.35 867.01,328.64 868.35,329.60 869.69,327.41 871.03,327.38 872.37,328.19 873.71,329.07 875.06,328.27 876.40,329.44 877.74,328.19 879.08,328.80 880.42,327.69 881.77,330.24 883.11,329.27 884.45,329.67 885.79,330.36 887.13,328.94 888.47,329.46 889.82,329.79 891.16,330.51 892.50,329.75 893.84,330.58 895.18,330.82 896.53,329.74 897.87,330.87 899.21,329.95 900.55,328.80 901.89,330.15 903.23,331.88 904.58,330.68 905.92,330.28 907.26,330.75 908.60,328.83 909.94,331.44 911.29,331.36 912.63,332.08 913.97,331.00 915.31,330.03 916.65,331.79 917.99,329.55 919.34,330.85 920.68,330.60 922.02,329.68 923.36,331.08 924.70,329.16 926.05,328.58 927.39,332.35 928.73,332.00 930.07,330.86 931.41,330.52 932.75,331.36 934.10,332.69 935.44,332.00 936.78,331.31 938.12,332.24 939.46,331.11 940.81,331.81 942.15,332.23 943.49,332.92 944.83,331.36 946.17,331.43 947.51,334.29 948.86,331.36 950.20,332.16 951.54,330.48 952.88,331.48 954.22,331.53 955.57,330.47 956.91,331.27 958.25,331.39 959.59,332.04 960.93,332.36 962.27,329.95 963.62,333.85 964.96,333.08 966.30,332.84 967.64,332.40 968.98,332.20 970.32,330.71 971.67,331.83 973.01,333.04 974.35,332.64 975.69,332.16 977.03,332.51 978.38,331.64 979.72,332.96 981.06,334.56 982.40,331.35 983.74,333.00 985.08,331.83 986.43,332.16 987.77,334.68 989.11,333.88 990.45,334.48 991.79,333.87 993.14,334.11 994.48,333.43 995.82,333.35 997.16,333.81 998.50,334.10 999.84,334.61 1001.19,334.59 1002.53,333.71 1003.87,333.52 1005.21,332.47 1006.55,333.07 1007.90,332.16 1009.24,332.35 1010.58,333.92 1011.92,332.35 1013.26,333.48 1014.60,334.16 1015.95,334.96 1017.29,333.36 1018.63,333.68 1019.97,332.80 1021.31,331.49 1022.66,333.28 1024.00,335.24 1025.34,334.67 1026.68,333.92 1028.02,335.00 1029.36,334.83 1030.71,335.28 1032.05,334.24 1033.39,336.03 1034.73,335.97 1035.00,335.97" fill="none" stroke="#202d3a" stroke-width="2"/>
<polyline points="85.00,131.25 86.07,133.77 87.42,136.88 88.76,139.94 90.10,142.96 91.44,145.94 92.78,148.87 94.12,151.76 95.47,154.61 96.81,157.42 98.15,160.19 99.49,162.92 100.83,165.61 102.18,168.26 103.52,170.87 104.86,173.45 106.20,175.99 107.54,178.49 108.88,180.96 110.23,183.39 111.57,185.78 112.91,188.14 114.25,190.47 115.59,192.76 116.94,195.02 118.28,197.25 119.62,199.45 120.96,201.61 122.30,203.75 123.64,205.85 124.99,207.92 126.33,209.96 127.67,211.98 129.01,213.96 130.35,215.92 131.70,217.85 133.04,219.75 134.38,221.62 135.72,223.46 137.06,225.28 138.40,227.08 139.75,228.84 141.09,230.59 142.43,232.30 143.77,234.00 145.11,235.66 146.45,237.31 147.80,238.93 149.14,240.52 150.48,242.10 151.82,243.65 153.16,245.18 154.51,246.69 155.85,248.17 157.19,249.64 158.53,251.08 159.87,252.50 161.21,253.90 162.56,255.28 163.90,256.65 165.24,257.99 166.58,259.31 167.92,260.61 169.27,261.90 170.61,263.17 171.95,264.42 173.29,265.65 174.63,266.86 175.97,268.05 177.32,269.23 178.66,270.39 180.00,271.54 181.34,272.67 182.68,273.78 184.03,274.87 185.37,275.95 186.71,277.02 188.05,278.07 189.39,279.10 190.73,280.12 192.08,281.13 193.42,282.12 194.76,283.09 196.10,284.05 197.44,285.00 198.79,285.94 200.13,286.86 201.47,287.77 202.81,288.66 204.15,289.54 205.49,290.41 206.84,291.27 208.18,292.11 209.52,292.95 210.86,293.77 212.20,294.57 213.55,295.37 214.89,296.16 216.23,296.93 217.57,297.69 218.91,298.45 220.25,299.19 221.60,299.92 222.94,300.64 224.28,301.35 225.62,302.05 226.96,302.74 228.31,303.42 229.65,304.09 230.99,304.75 232.33,305.40 233.67,306.04 235.01,306.67 236.36,307.29 237.70,307.91 239.04,308.51 240.38,309.11 241.72,309.70 243.07,310.28 244.41,310.85 245.75,311.41 247.09,311.96 248.43,312.51 249.77,313.05 251.12,313.58 252.46,314.11 253.80,314.62 255.14,315.13 256.48,315.63 257.82,316.13 259.17,316.61 260.51,317.09 261.85,317.57 263.19,318.03 264.53,318.49 265.88,318.94 267.22,319.39 268.56,319.83 269.90,320.27 271.24,320.69 272.58,321.11 273.93,321.53 275.27,321.94 276.61,322.34 277.95,322.74 279.29,323.13 280.64,323.52 281.98,323.90 283.32,324.27 284.66,324.64 286.00,325.01 287.34,325.37 288.69,325.72 290.03,326.07 291.37,326.42 292.71,326.75 294.05,327.09 295.40,327.42 296.74,327.74 298.08,328.06 299.42,328.38 300.76,328.69 302.10,329.00 303.45,329.30 304.79,329.59 306.13,329.89 307.47,330.18 308.81,330.46 310.16,330.74 311.50,331.02 312.84,331.29 314.18,331.56 315.52,331.83 316.86,332.09 318.21,332.35 319.55,332.60 320.89,332.85 322.23,333.10 323.57,333.34 324.92,333.58 326.26,333.82 327.60,334.05 328.94,334.28 330.28,334.50 331.62,334.73 332.97,334.95 334.31,335.16 335.65,335.38 336.99,335.59 338.33,335.79 339.68,336.00 341.02,336.20 342.36,336.40 343.70,336.59 345.04,336.79 346.38,336.98 347.73,337.16 349.07,337.35 350.41,337.53 351.75,337.71 353.09,337.89 354.44,338.06 355.78,338.23 357.12,338.40 358.46,338.57 359.80,338.73 361.14,338.89 362.49,339.05 363.83,339.21 365.17,339.37 366.51,339.52 367.85,339.67 369.20,339.82 370.54,339.96 371.88,340.11 373.22,340.25 374.56,340.39 375.90,340.53 377.25,340.67 378.59,340.80 379.93,340.93 381.27,341.06 382.61,341.19 383.95,341.32 385.30,341.44 386.64,341.57 387.98,341.69 389.32,341.81 390.66,341.92 392.01,342.04 393.35,342.15 394.69,342.27 396.03,342.38 397.37,342.49 398.71,342.60 400.06,342.70 401.40,342.81 402.74,342.91 404.08,343.01 405.42,343.11 406.77,343.21 408.11,343.31 409.45,343.41 410.79,343.50 412.13,343.59 413.47,343.69 414.82,343.78 416.16,343.87 417.50,343.95 418.84,344.04 420.18,344.13 421.53,344.21 422.87,344.29 424.21,344.38 425.55,344.46 426.89,344.54 428.23,344.62 429.58,344.69 430.92,344.77 432.26,344.84 433.60,344.92 434.94,344.99 436.29,345.06 437.63,345.13 438.97,345.20 440.31,345.27 441.65,345.34 442.99,345.41 444.34,345.47 445.68,345.54 447.02,345.60 448.36,345.67 449.70,345.73 451.05,345.79 452.39,345.85 453.73,345.91 455.07,345.97 456.41,346.03 457.75,346.08 459.10,346.14 460.44,346.20 461.78,346.25 463.12,346.31 464.46,346.36 465.81,346.41 467.15,346.46 468.49,346.51 469.83,346.56 471.17,346.61 472.51,346.66 473.86,346.71 475.20,346.76 476.54,346.80 477.88,346.85 479.22,346.89 480.56,346.94 481.91,346.98 483.25,347.03 484.59,347.07 485.93,347.11 487.27,347.15 488.62,347.19 489.96,347.23 491.30,347.27 492.64,347.31 493.98,347.35 495.33,347.39 496.67,347.43 498.01,347.46 499.35,347.50 500.69,347.54 502.03,347.57 503.38,347.61 504.72,347.64 506.06,347.68 507.40,347.71 508.74,347.74 510.08,347.77 511.43,347.81 512.77,347.84 514.11,347.87 515.45,347.90 516.79,347.93 518.14,347.96 519.48,347.99 520.82,348.02 522.16,348.05 523.50,348.07 524.84,348.10 526.19,348.13 527.53,348.16 528.87,348.18 530.21,348.21 531.55,348.23 532.90,348.26 534.24,348.29 535.58,348.31 536.92,348.33 538.26,348.36 539.60,348.38 540.95,348.40 542.29,348.43 543.63,348.45 544.97,348.47 546.31,348.49 547.66,348.52 549.00,348.54 550.34,348.56 551.68,348.58 553.02,348.60 554.36,348.62 555.71,348.64 557.05,348.66 558.39,348.68 559.73,348.70 561.07,348.72 562.42,348.73 563.76,348.75 565.10,348.77 566.44,348.79 567.78,348.81 569.12,348.82 570.47,348.84 571.81,348.86 573.15,348.87 574.49,348.89 575.83,348.91 577.18,348.92 578.52,348.94 579.86,348.95 581.20,348.97 582.54,348.98 583.88,349.00 585.23,349.01 586.57,349.03 587.91,349.04 589.25,349.05 590.59,349.07 591.94,349.08 593.28,349.09 594.62,349.11 595.96,349.12 597.30,349.13 598.64,349.14 599.99,349.16 601.33,349.17 602.67,349.18 604.01,349.19 605.35,349.20 606.69,349.22 608.04,349.23 609.38,349.24 610.72,349.25 612.06,349.26 613.40,349.27 614.75,349.28 616.09,349.29 617.43,349.30 618.77,349.31 620.11,349.32 621.45,349.33 622.80,349.34 624.14,349.35 625.48,349.36 626.82,349.37 628.16,349.38 629.51,349.39 630.85,349.40 632.19,349.40 633.53,349.41 634.87,349.42 636.21,349.43 637.56,349.44 638.90,349.45 640.24,349.45 641.58,349.46 642.92,349.47 644.27,349.48 645.61,349.48 646.95,349.49 648.29,349.50 649.63,349.51 650.97,349.51 652.32,349.52 653.66,349.53 655.00,349.53 656.34,349.54 657.68,349.55 659.03,349.55 660.37,349.56 661.71,349.57 663.05,349.57 664.39,349.58 665.73,349.59 667.08,349.59 668.42,349.60 669.76,349.60 671.10,349.61 672.44,349.61 673.79,349.62 675.13,349.63 676.47,349.63 677.81,349.64 679.15,349.64 680.49,349.65 681.84,349.65 683.18,349.66 684.52,349.66 685.86,349.67 687.20,349.67 688.55,349.68 689.89,349.68 691.23,349.68 692.57,349.69 693.91,349.69 695.25,349.70 696.60,349.70 697.94,349.71 699.28,349.71 700.62,349.72 701.96,349.72 703.31,349.72 704.65,349.73 705.99,349.73 707.33,349.74 708.67,349.74 710.01,349.74 711.36,349.75 712.70,349.75 714.04,349.75 715.38,349.76 716.72,349.76 718.07,349.76 719.41,349.77 720.75,349.77 722.09,349.77 723.43,349.78 724.77,349.78 726.12,349.78 727.46,349.79 728.80,349.79 730.14,349.79 731.48,349.80 732.82,349.80 734.17,349.80 735.51,349.80 736.85,349.81 738.19,349.81 739.53,349.81 740.88,349.82 742.22,349.82 743.56,349.82 744.90,349.82 746.24,349.83 747.58,349.83 748.93,349.83 750.27,349.83 751.61,349.84 752.95,349.84 754.29,349.84 755.64,349.84 756.98,349.85 758.32,349.85 759.66,349.85 761.00,349.85 762.34,349.85 763.69,349.86 765.03,349.86 766.37,349.86 767.71,349.86 769.05,349.86 770.40,349.87 771.74,349.87 773.08,349.87 774.42,349.87 775.76,349.87 777.10,349.88 778.45,349.88 779.79,349.88 781.13,349.88 782.47,349.88 783.81,349.88 785.16,349.89 786.50,349.89 787.84,349.89 789.18,349.89 790.52,349.89 791.86,349.89 793.21,349.90 794.55,349.90 795.89,349.90 797.23,349.90 798.57,349.90 799.92,349.90 801.26,349.90 802.60,349.91 803.94,349.91 805.28,349.91 806.62,349.91 807.97,349.91 809.31,349.91 810.65,349.91 811.99,349.91 813.33,349.92 814.68,349.92 816.02,349.92 817.36,349.92 818.70,349.92 820.04,349.92 821.38,349.92 822.73,349.92 824.07,349.92 825.41,349.93 826.75,349.93 828.09,349.93 829.44,349.93 830.78,349.93 832.12,349.93 833.46,349.93 834.80,349.93 836.14,349.93 837.49,349.94 838.83,349.94 840.17,349.94 841.51,349.94 842.85,349.94 844.19,349.94 845.54,349.94 846.88,349.94 848.22,349.94 849.56,349.94 850.90,349.94 852.25,349.94 853.59,349.95 854.93,349.95 856.27,349.95 857.61,349.95 858.96,349.95 860.30,349.95 861.64,349.95 862.98,349.95 864.32,349.95 865.66,349.95 867.01,349.95 868.35,349.95 869.69,349.95 871.03,349.95 872.37,349.96 873.71,349.96 875.06,349.96 876.40,349.96 877.74,349.96 879.08,349.96 880.42,349.96 881.77,349.96 883.11,349.96 884.45,349.96 885.79,349.96 887.13,349.96 888.47,349.96 889.82,349.96 891.16,349.96 892.50,349.96 893.84,349.96 895.18,349.97 896.53,349.97 897.87,349.97 899.21,349.97 900.55,349.97 901.89,349.97 903.23,349.97 904.58,349.97 905.92,349.97 907.26,349.97 908.60,349.97 909.94,349.97 911.29,349.97 912.63,349.97 913.97,349.97 915.31,349.97 916.65,349.97 917.99,349.97 919.34,349.97 920.68,349.97 922.02,349.97 923.36,349.97 924.70,349.97 926.05,349.98 927.39,349.98 928.73,349.98 930.07,349.98 931.41,349.98 932.75,349.98 934.10,349.98 935.44,349.98 936.78,349.98 938.12,349.98 939.46,349.98 940.81,349.98 942.15,349.98 943.49,349.98 944.83,349.98 946.17,349.98 947.51,349.98 948.86,349.98 950.20,349.98 951.54,349.98 952.88,349.98 954.22,349.98 955.57,349.98 956.91,349.98 958.25,349.98 959.59,349.98 960.93,349.98 962.27,349.98 963.62,349.98 964.96,349.98 966.30,349.98 967.64,349.98 968.98,349.98 970.32,349.98 971.67,349.98 973.01,349.98 974.35,349.99 975.69,349.99 977.03,349.99 978.38,349.99 979.72,349.99 981.06,349.99 982.40,349.99 983.74,349.99 985.08,349.99 986.43,349.99 987.77,349.99 989.11,349.99 990.45,349.99 991.79,349.99 993.14,349.99 994.48,349.99 995.82,349.99 997.16,349.99 998.50,349.99 999.84,349.99 1001.19,349.99 1002.53,349.99 1003.87,349.99 1005.21,349.99 1006.55,349.99 1007.90,349.99 1009.24,349.99 1010.58,349.99 1011.92,349.99 1013.26,349.99 1014.60,349.99 1015.95,349.99 1017.29,349.99 1018.63,349.99 1019.97,349.99 1021.31,349.99 1022.66,349.99 1024.00,349.99 1025.34,349.99 1026.68,349.99 1028.02,349.99 1029.36,349.99 1030.71,349.99 1032.05,349.99 1033.39,349.99 1034.73,349.99 1035.00,349.99" fill="none" stroke="#007f80" stroke-width="2"/>
<polyline points="85.00,131.25 86.07,132.39 87.42,133.82 88.76,135.24 90.10,136.64 91.44,138.04 92.78,139.43 94.12,140.81 95.47,142.18 96.81,143.54 98.15,144.90 99.49,146.24 100.83,147.58 102.18,148.90 103.52,150.22 104.86,151.53 106.20,152.83 107.54,154.12 108.88,155.40 110.23,156.68 111.57,157.95 112.91,159.20 114.25,160.46 115.59,161.70 116.94,162.93 118.28,164.16 119.62,165.37 120.96,166.58 122.30,167.79 123.64,168.98 124.99,170.17 126.33,171.34 127.67,172.52 129.01,173.68 130.35,174.83 131.70,175.98 133.04,177.12 134.38,178.25 135.72,179.38 137.06,180.50 138.40,181.61 139.75,182.71 141.09,183.81 142.43,184.90 143.77,185.98 145.11,187.05 146.45,188.12 147.80,189.18 149.14,190.24 150.48,191.28 151.82,192.32 153.16,193.36 154.51,194.38 155.85,195.40 157.19,196.42 158.53,197.42 159.87,198.42 161.21,199.41 162.56,200.40 163.90,201.38 165.24,202.36 166.58,203.32 167.92,204.28 169.27,205.24 170.61,206.19 171.95,207.13 173.29,208.07 174.63,209.00 175.97,209.92 177.32,210.84 178.66,211.75 180.00,212.66 181.34,213.56 182.68,214.45 184.03,215.34 185.37,216.22 186.71,217.10 188.05,217.97 189.39,218.83 190.73,219.69 192.08,220.55 193.42,221.39 194.76,222.24 196.10,223.07 197.44,223.91 198.79,224.73 200.13,225.55 201.47,226.37 202.81,227.18 204.15,227.98 205.49,228.78 206.84,229.58 208.18,230.37 209.52,231.15 210.86,231.93 212.20,232.70 213.55,233.47 214.89,234.24 216.23,234.99 217.57,235.75 218.91,236.50 220.25,237.24 221.60,237.98 222.94,238.71 224.28,239.44 225.62,240.17 226.96,240.89 228.31,241.60 229.65,242.31 230.99,243.02 232.33,243.72 233.67,244.41 235.01,245.11 236.36,245.79 237.70,246.48 239.04,247.15 240.38,247.83 241.72,248.50 243.07,249.16 244.41,249.82 245.75,250.48 247.09,251.13 248.43,251.78 249.77,252.42 251.12,253.06 252.46,253.70 253.80,254.33 255.14,254.96 256.48,255.58 257.82,256.20 259.17,256.81 260.51,257.42 261.85,258.03 263.19,258.63 264.53,259.23 265.88,259.83 267.22,260.42 268.56,261.00 269.90,261.59 271.24,262.17 272.58,262.74 273.93,263.31 275.27,263.88 276.61,264.45 277.95,265.01 279.29,265.56 280.64,266.12 281.98,266.67 283.32,267.21 284.66,267.75 286.00,268.29 287.34,268.83 288.69,269.36 290.03,269.89 291.37,270.41 292.71,270.94 294.05,271.45 295.40,271.97 296.74,272.48 298.08,272.99 299.42,273.49 300.76,273.99 302.10,274.49 303.45,274.99 304.79,275.48 306.13,275.97 307.47,276.45 308.81,276.93 310.16,277.41 311.50,277.89 312.84,278.36 314.18,278.83 315.52,279.30 316.86,279.76 318.21,280.22 319.55,280.68 320.89,281.13 322.23,281.58 323.57,282.03 324.92,282.48 326.26,282.92 327.60,283.36 328.94,283.79 330.28,284.23 331.62,284.66 332.97,285.09 334.31,285.51 335.65,285.94 336.99,286.36 338.33,286.77 339.68,287.19 341.02,287.60 342.36,288.01 343.70,288.41 345.04,288.82 346.38,289.22 347.73,289.62 349.07,290.01 350.41,290.40 351.75,290.80 353.09,291.18 354.44,291.57 355.78,291.95 357.12,292.33 358.46,292.71 359.80,293.09 361.14,293.46 362.49,293.83 363.83,294.20 365.17,294.56 366.51,294.93 367.85,295.29 369.20,295.65 370.54,296.00 371.88,296.36 373.22,296.71 374.56,297.06 375.90,297.40 377.25,297.75 378.59,298.09 379.93,298.43 381.27,298.77 382.61,299.10 383.95,299.44 385.30,299.77 386.64,300.10 387.98,300.42 389.32,300.75 390.66,301.07 392.01,301.39 393.35,301.71 394.69,302.03 396.03,302.34 397.37,302.65 398.71,302.96 400.06,303.27 401.40,303.58 402.74,303.88 404.08,304.19 405.42,304.49 406.77,304.78 408.11,305.08 409.45,305.37 410.79,305.67 412.13,305.96 413.47,306.25 414.82,306.53 416.16,306.82 417.50,307.10 418.84,307.38 420.18,307.66 421.53,307.94 422.87,308.21 424.21,308.49 425.55,308.76 426.89,309.03 428.23,309.30 429.58,309.56 430.92,309.83 432.26,310.09 433.60,310.35 434.94,310.61 436.29,310.87 437.63,311.13 438.97,311.38 440.31,311.64 441.65,311.89 442.99,312.14 444.34,312.39 445.68,312.63 447.02,312.88 448.36,313.12 449.70,313.36 451.05,313.60 452.39,313.84 453.73,314.08 455.07,314.31 456.41,314.55 457.75,314.78 459.10,315.01 460.44,315.24 461.78,315.47 463.12,315.69 464.46,315.92 465.81,316.14 467.15,316.36 468.49,316.58 469.83,316.80 471.17,317.02 472.51,317.24 473.86,317.45 475.20,317.66 476.54,317.88 477.88,318.09 479.22,318.30 480.56,318.50 481.91,318.71 483.25,318.91 484.59,319.12 485.93,319.32 487.27,319.52 488.62,319.72 489.96,319.92 491.30,320.12 492.64,320.31 493.98,320.51 495.33,320.70 496.67,320.89 498.01,321.08 499.35,321.27 500.69,321.46 502.03,321.65 503.38,321.83 504.72,322.02 506.06,322.20 507.40,322.38 508.74,322.56 510.08,322.74 511.43,322.92 512.77,323.10 514.11,323.28 515.45,323.45 516.79,323.63 518.14,323.80 519.48,323.97 520.82,324.14 522.16,324.31 523.50,324.48 524.84,324.65 526.19,324.81 527.53,324.98 528.87,325.14 530.21,325.30 531.55,325.47 532.90,325.63 534.24,325.79 535.58,325.95 536.92,326.10 538.26,326.26 539.60,326.41 540.95,326.57 542.29,326.72 543.63,326.88 544.97,327.03 546.31,327.18 547.66,327.33 549.00,327.48 550.34,327.62 551.68,327.77 553.02,327.92 554.36,328.06 555.71,328.20 557.05,328.35 558.39,328.49 559.73,328.63 561.07,328.77 562.42,328.91 563.76,329.05 565.10,329.18 566.44,329.32 567.78,329.46 569.12,329.59 570.47,329.72 571.81,329.86 573.15,329.99 574.49,330.12 575.83,330.25 577.18,330.38 578.52,330.51 579.86,330.64 581.20,330.76 582.54,330.89 583.88,331.01 585.23,331.14 586.57,331.26 587.91,331.39 589.25,331.51 590.59,331.63 591.94,331.75 593.28,331.87 594.62,331.99 595.96,332.11 597.30,332.22 598.64,332.34 599.99,332.45 601.33,332.57 602.67,332.68 604.01,332.80 605.35,332.91 606.69,333.02 608.04,333.13 609.38,333.24 610.72,333.35 612.06,333.46 613.40,333.57 614.75,333.68 616.09,333.79 617.43,333.89 618.77,334.00 620.11,334.10 621.45,334.21 622.80,334.31 624.14,334.41 625.48,334.52 626.82,334.62 628.16,334.72 629.51,334.82 630.85,334.92 632.19,335.02 633.53,335.11 634.87,335.21 636.21,335.31 637.56,335.40 638.90,335.50 640.24,335.60 641.58,335.69 642.92,335.78 644.27,335.88 645.61,335.97 646.95,336.06 648.29,336.15 649.63,336.24 650.97,336.33 652.32,336.42 653.66,336.51 655.00,336.60 656.34,336.69 657.68,336.78 659.03,336.86 660.37,336.95 661.71,337.03 663.05,337.12 664.39,337.20 665.73,337.29 667.08,337.37 668.42,337.45 669.76,337.54 671.10,337.62 672.44,337.70 673.79,337.78 675.13,337.86 676.47,337.94 677.81,338.02 679.15,338.10 680.49,338.17 681.84,338.25 683.18,338.33 684.52,338.40 685.86,338.48 687.20,338.56 688.55,338.63 689.89,338.71 691.23,338.78 692.57,338.85 693.91,338.93 695.25,339.00 696.60,339.07 697.94,339.14 699.28,339.21 700.62,339.28 701.96,339.35 703.31,339.42 704.65,339.49 705.99,339.56 707.33,339.63 708.67,339.70 710.01,339.77 711.36,339.83 712.70,339.90 714.04,339.97 715.38,340.03 716.72,340.10 718.07,340.16 719.41,340.23 720.75,340.29 722.09,340.35 723.43,340.42 724.77,340.48 726.12,340.54 727.46,340.60 728.80,340.67 730.14,340.73 731.48,340.79 732.82,340.85 734.17,340.91 735.51,340.97 736.85,341.03 738.19,341.09 739.53,341.14 740.88,341.20 742.22,341.26 743.56,341.32 744.90,341.37 746.24,341.43 747.58,341.49 748.93,341.54 750.27,341.60 751.61,341.65 752.95,341.71 754.29,341.76 755.64,341.82 756.98,341.87 758.32,341.92 759.66,341.98 761.00,342.03 762.34,342.08 763.69,342.13 765.03,342.18 766.37,342.24 767.71,342.29 769.05,342.34 770.40,342.39 771.74,342.44 773.08,342.49 774.42,342.54 775.76,342.58 777.10,342.63 778.45,342.68 779.79,342.73 781.13,342.78 782.47,342.82 783.81,342.87 785.16,342.92 786.50,342.96 787.84,343.01 789.18,343.06 790.52,343.10 791.86,343.15 793.21,343.19 794.55,343.24 795.89,343.28 797.23,343.32 798.57,343.37 799.92,343.41 801.26,343.46 802.60,343.50 803.94,343.54 805.28,343.58 806.62,343.63 807.97,343.67 809.31,343.71 810.65,343.75 811.99,343.79 813.33,343.83 814.68,343.87 816.02,343.91 817.36,343.95 818.70,343.99 820.04,344.03 821.38,344.07 822.73,344.11 824.07,344.15 825.41,344.19 826.75,344.22 828.09,344.26 829.44,344.30 830.78,344.34 832.12,344.37 833.46,344.41 834.80,344.45 836.14,344.48 837.49,344.52 838.83,344.56 840.17,344.59 841.51,344.63 842.85,344.66 844.19,344.70 845.54,344.73 846.88,344.77 848.22,344.80 849.56,344.83 850.90,344.87 852.25,344.90 853.59,344.94 854.93,344.97 856.27,345.00 857.61,345.03 858.96,345.07 860.30,345.10 861.64,345.13 862.98,345.16 864.32,345.19 865.66,345.23 867.01,345.26 868.35,345.29 869.69,345.32 871.03,345.35 872.37,345.38 873.71,345.41 875.06,345.44 876.40,345.47 877.74,345.50 879.08,345.53 880.42,345.56 881.77,345.59 883.11,345.62 884.45,345.65 885.79,345.67 887.13,345.70 888.47,345.73 889.82,345.76 891.16,345.79 892.50,345.81 893.84,345.84 895.18,345.87 896.53,345.90 897.87,345.92 899.21,345.95 900.55,345.98 901.89,346.00 903.23,346.03 904.58,346.06 905.92,346.08 907.26,346.11 908.60,346.13 909.94,346.16 911.29,346.18 912.63,346.21 913.97,346.23 915.31,346.26 916.65,346.28 917.99,346.31 919.34,346.33 920.68,346.35 922.02,346.38 923.36,346.40 924.70,346.43 926.05,346.45 927.39,346.47 928.73,346.50 930.07,346.52 931.41,346.54 932.75,346.56 934.10,346.59 935.44,346.61 936.78,346.63 938.12,346.65 939.46,346.67 940.81,346.70 942.15,346.72 943.49,346.74 944.83,346.76 946.17,346.78 947.51,346.80 948.86,346.82 950.20,346.85 951.54,346.87 952.88,346.89 954.22,346.91 955.57,346.93 956.91,346.95 958.25,346.97 959.59,346.99 960.93,347.01 962.27,347.03 963.62,347.05 964.96,347.07 966.30,347.08 967.64,347.10 968.98,347.12 970.32,347.14 971.67,347.16 973.01,347.18 974.35,347.20 975.69,347.22 977.03,347.23 978.38,347.25 979.72,347.27 981.06,347.29 982.40,347.31 983.74,347.32 985.08,347.34 986.43,347.36 987.77,347.38 989.11,347.39 990.45,347.41 991.79,347.43 993.14,347.44 994.48,347.46 995.82,347.48 997.16,347.49 998.50,347.51 999.84,347.53 1001.19,347.54 1002.53,347.56 1003.87,347.57 1005.21,347.59 1006.55,347.61 1007.90,347.62 1009.24,347.64 1010.58,347.65 1011.92,347.67 1013.26,347.68 1014.60,347.70 1015.95,347.71 1017.29,347.73 1018.63,347.74 1019.97,347.76 1021.31,347.77 1022.66,347.79 1024.00,347.80 1025.34,347.82 1026.68,347.83 1028.02,347.85 1029.36,347.86 1030.71,347.87 1032.05,347.89 1033.39,347.90 1034.73,347.92 1035.00,347.92" fill="none" stroke="#bc4b26" stroke-width="2"/>
<text x="20" y="232.5" font-size="13" transform="rotate(-90 20 232.5)" text-anchor="middle">Skin temperature (°C)</text>
<text x="85" y="99" font-size="17">nominal 25c: baseline 25.000 °C; transferred effective tau 345.3 s</text>
<text x="515" y="395" font-size="14">Rest step time (s)</text>
<path d="M85,675.00H1035" stroke="#dde2e8"/>
<text x="48" y="680.00" font-size="13">25</text>
<path d="M85,596.67H1035" stroke="#dde2e8"/>
<text x="48" y="601.67" font-size="13">27</text>
<path d="M85,518.33H1035" stroke="#dde2e8"/>
<text x="48" y="523.33" font-size="13">29</text>
<path d="M85,440.00H1035" stroke="#dde2e8"/>
<text x="48" y="445.00" font-size="13">31</text>
<path d="M85.00,440V675" stroke="#aab3c0" stroke-dasharray="4 4"/>
<text x="85.00" y="698" text-anchor="middle" font-size="13">60</text>
<path d="M229.92,440V675" stroke="#aab3c0" stroke-dasharray="4 4"/>
<text x="229.92" y="698" text-anchor="middle" font-size="13">600</text>
<path d="M551.95,440V675" stroke="#aab3c0" stroke-dasharray="4 4"/>
<text x="551.95" y="698" text-anchor="middle" font-size="13">1800</text>
<path d="M1035.00,440V675" stroke="#aab3c0" stroke-dasharray="4 4"/>
<text x="1035.00" y="698" text-anchor="middle" font-size="13">3600</text>
<polyline points="85.00,456.25 86.07,460.05 87.42,463.10 88.76,464.76 90.10,465.19 91.44,466.20 92.78,469.09 94.12,474.31 95.47,477.09 96.81,475.86 98.15,479.96 99.49,481.12 100.83,485.10 102.18,483.98 103.52,487.88 104.86,488.58 106.20,491.66 107.54,493.59 108.88,493.17 110.23,496.18 111.57,497.32 112.91,500.31 114.25,500.37 115.59,504.70 116.94,507.83 118.28,508.63 119.62,509.81 120.96,510.71 122.30,512.50 123.64,514.87 124.99,517.05 126.33,518.23 127.67,521.89 129.01,522.49 130.35,522.96 131.70,527.13 133.04,528.08 134.38,529.62 135.72,528.14 137.06,531.04 138.40,533.03 139.75,535.54 141.09,534.76 142.43,539.59 143.77,541.64 145.11,543.15 146.45,542.39 147.80,544.53 149.14,546.24 150.48,549.07 151.82,547.55 153.16,549.73 154.51,553.32 155.85,554.58 157.19,554.09 158.53,554.85 159.87,554.91 161.21,558.97 162.56,562.14 163.90,562.52 165.24,560.81 166.58,561.87 167.92,565.45 169.27,566.49 170.61,567.24 171.95,568.64 173.29,567.99 174.63,570.78 175.97,571.17 177.32,573.93 178.66,573.47 180.00,576.27 181.34,574.91 182.68,576.94 184.03,578.18 185.37,577.12 186.71,579.52 188.05,579.71 189.39,581.63 190.73,582.70 192.08,580.58 193.42,583.22 194.76,584.65 196.10,585.58 197.44,585.43 198.79,587.36 200.13,589.73 201.47,590.67 202.81,589.95 204.15,591.06 205.49,591.97 206.84,594.12 208.18,593.20 209.52,595.03 210.86,597.03 212.20,597.36 213.55,596.32 214.89,599.10 216.23,599.54 217.57,600.29 218.91,600.60 220.25,600.32 221.60,602.24 222.94,603.09 224.28,604.72 225.62,603.75 226.96,604.67 228.31,606.11 229.65,606.56 230.99,607.01 232.33,607.06 233.67,607.46 235.01,606.48 236.36,608.49 237.70,610.09 239.04,609.92 240.38,612.52 241.72,611.92 243.07,613.71 244.41,614.44 245.75,616.67 247.09,615.14 248.43,614.98 249.77,614.86 251.12,614.11 252.46,613.02 253.80,613.92 255.14,611.51 256.48,610.15 257.82,612.23 259.17,611.56 260.51,612.04 261.85,611.74 263.19,610.91 264.53,613.56 265.88,613.25 267.22,614.12 268.56,615.66 269.90,617.23 271.24,618.38 272.58,621.53 273.93,622.52 275.27,622.83 276.61,624.50 277.95,626.90 279.29,630.18 280.64,630.61 281.98,632.49 283.32,635.60 284.66,632.91 286.00,635.24 287.34,636.51 288.69,635.95 290.03,637.90 291.37,638.95 292.71,640.63 294.05,639.37 295.40,641.87 296.74,641.93 298.08,641.90 299.42,642.14 300.76,642.42 302.10,641.69 303.45,642.14 304.79,640.85 306.13,642.63 307.47,642.03 308.81,640.71 310.16,641.68 311.50,638.96 312.84,637.71 314.18,636.45 315.52,634.60 316.86,633.41 318.21,629.54 319.55,628.04 320.89,627.17 322.23,623.26 323.57,621.32 324.92,618.93 326.26,613.88 327.60,611.24 328.94,608.89 330.28,605.54 331.62,605.59 332.97,603.59 334.31,606.03 335.65,608.00 336.99,612.63 338.33,616.58 339.68,618.77 341.02,621.20 342.36,622.15 343.70,623.83 345.04,623.90 346.38,626.90 347.73,627.03 349.07,628.26 350.41,628.00 351.75,629.50 353.09,628.34 354.44,630.45 355.78,630.45 357.12,631.93 358.46,634.13 359.80,632.68 361.14,634.72 362.49,637.63 363.83,636.82 365.17,638.68 366.51,638.27 367.85,641.58 369.20,642.62 370.54,643.67 371.88,644.83 373.22,643.06 374.56,643.36 375.90,643.57 377.25,644.01 378.59,645.94 379.93,644.93 381.27,645.98 382.61,644.89 383.95,645.01 385.30,645.98 386.64,646.26 387.98,643.73 389.32,645.75 390.66,643.41 392.01,644.98 393.35,645.01 394.69,644.50 396.03,646.89 397.37,645.01 398.71,646.67 400.06,646.29 401.40,648.76 402.74,647.33 404.08,647.98 405.42,648.53 406.77,647.66 408.11,649.42 409.45,648.34 410.79,649.21 412.13,650.04 413.47,649.21 414.82,648.42 416.16,648.58 417.50,650.22 418.84,648.78 420.18,648.74 421.53,646.53 422.87,648.35 424.21,648.43 425.55,649.39 426.89,646.89 428.23,647.03 429.58,646.06 430.92,647.78 432.26,649.48 433.60,647.74 434.94,648.40 436.29,647.02 437.63,648.56 438.97,648.23 440.31,646.78 441.65,647.14 442.99,647.50 444.34,648.06 445.68,647.95 447.02,648.74 448.36,648.11 449.70,647.34 451.05,648.23 452.39,647.83 453.73,647.24 455.07,646.83 456.41,648.03 457.75,647.59 459.10,648.75 460.44,647.62 461.78,647.16 463.12,649.00 464.46,648.16 465.81,648.71 467.15,649.80 468.49,647.75 469.83,648.48 471.17,648.56 472.51,649.32 473.86,647.92 475.20,647.22 476.54,647.91 477.88,647.11 479.22,648.20 480.56,647.71 481.91,650.92 483.25,649.15 484.59,650.64 485.93,647.06 487.27,649.60 488.62,649.15 489.96,649.93 491.30,648.12 492.64,648.82 493.98,647.79 495.33,648.24 496.67,648.59 498.01,647.95 499.35,649.76 500.69,647.35 502.03,648.52 503.38,647.77 504.72,648.59 506.06,646.84 507.40,647.16 508.74,647.80 510.08,646.80 511.43,647.73 512.77,647.56 514.11,647.40 515.45,647.64 516.79,648.24 518.14,648.69 519.48,647.40 520.82,649.11 522.16,648.53 523.50,647.16 524.84,647.77 526.19,649.77 527.53,648.72 528.87,649.85 530.21,648.17 531.55,648.04 532.90,647.92 534.24,648.76 535.58,648.64 536.92,647.79 538.26,648.68 539.60,649.09 540.95,646.52 542.29,647.43 543.63,648.45 544.97,648.76 546.31,647.68 547.66,647.55 549.00,648.20 550.34,649.56 551.68,647.48 553.02,648.60 554.36,648.25 555.71,648.69 557.05,647.92 558.39,648.41 559.73,648.45 561.07,647.88 562.42,647.61 563.76,648.77 565.10,648.45 566.44,647.61 567.78,648.53 569.12,649.09 570.47,647.80 571.81,647.21 573.15,647.57 574.49,648.97 575.83,648.98 577.18,648.93 578.52,649.66 579.86,649.21 581.20,649.09 582.54,649.05 583.88,648.08 585.23,648.17 586.57,648.84 587.91,650.46 589.25,650.30 590.59,650.21 591.94,649.49 593.28,647.49 594.62,648.74 595.96,650.54 597.30,649.69 598.64,648.17 599.99,648.37 601.33,648.69 602.67,646.72 604.01,647.77 605.35,647.97 606.69,648.28 608.04,649.89 609.38,646.80 610.72,648.53 612.06,649.62 613.40,649.66 614.75,649.29 616.09,647.07 617.43,648.36 618.77,649.28 620.11,650.71 621.45,648.13 622.80,648.46 624.14,648.65 625.48,650.66 626.82,648.69 628.16,650.41 629.51,647.65 630.85,648.01 632.19,648.46 633.53,647.85 634.87,647.85 636.21,649.97 637.56,648.45 638.90,648.58 640.24,647.50 641.58,648.17 642.92,648.49 644.27,650.26 645.61,648.33 646.95,648.46 648.29,647.69 649.63,648.61 650.97,647.90 652.32,648.70 653.66,647.52 655.00,649.29 656.34,647.53 657.68,648.09 659.03,649.46 660.37,649.13 661.71,648.37 663.05,647.90 664.39,649.74 665.73,649.50 667.08,648.18 668.42,648.06 669.76,648.69 671.10,649.57 672.44,649.34 673.79,649.29 675.13,650.54 676.47,649.09 677.81,650.39 679.15,649.89 680.49,649.77 681.84,650.34 683.18,649.00 684.52,649.34 685.86,648.70 687.20,649.50 688.55,649.05 689.89,648.45 691.23,649.17 692.57,650.65 693.91,650.14 695.25,648.77 696.60,649.40 697.94,650.94 699.28,649.82 700.62,648.74 701.96,649.52 703.31,648.62 704.65,649.74 705.99,650.46 707.33,650.26 708.67,648.32 710.01,649.95 711.36,649.23 712.70,650.03 714.04,649.67 715.38,650.10 716.72,651.63 718.07,650.26 719.41,650.54 720.75,648.90 722.09,650.11 723.43,651.95 724.77,651.34 726.12,652.03 727.46,649.11 728.80,650.66 730.14,650.14 731.48,650.47 732.82,649.82 734.17,648.82 735.51,649.26 736.85,648.81 738.19,649.58 739.53,650.35 740.88,649.83 742.22,650.27 743.56,650.51 744.90,649.57 746.24,651.47 747.58,650.39 748.93,650.58 750.27,650.31 751.61,651.34 752.95,650.75 754.29,650.77 755.64,650.95 756.98,651.79 758.32,650.71 759.66,649.46 761.00,651.42 762.34,649.74 763.69,650.07 765.03,651.62 766.37,650.75 767.71,650.63 769.05,650.80 770.40,650.66 771.74,649.55 773.08,652.02 774.42,650.99 775.76,651.63 777.10,651.26 778.45,651.74 779.79,651.74 781.13,651.30 782.47,651.67 783.81,649.66 785.16,649.70 786.50,651.79 787.84,651.35 789.18,651.76 790.52,650.87 791.86,651.34 793.21,651.95 794.55,653.71 795.89,650.86 797.23,652.24 798.57,652.30 799.92,652.35 801.26,652.87 802.60,651.74 803.94,653.99 805.28,652.75 806.62,651.90 807.97,651.79 809.31,653.48 810.65,652.22 811.99,652.51 813.33,652.35 814.68,652.07 816.02,652.63 817.36,651.60 818.70,652.23 820.04,653.24 821.38,653.71 822.73,653.46 824.07,651.55 825.41,653.35 826.75,652.79 828.09,653.26 829.44,655.85 830.78,655.12 832.12,654.20 833.46,654.55 834.80,654.71 836.14,654.75 837.49,653.75 838.83,653.67 840.17,653.47 841.51,653.80 842.85,653.26 844.19,653.10 845.54,653.59 846.88,654.16 848.22,653.95 849.56,655.72 850.90,655.11 852.25,653.87 853.59,654.27 854.93,655.52 856.27,654.27 857.61,653.75 858.96,653.76 860.30,654.16 861.64,655.57 862.98,654.99 864.32,653.63 865.66,654.35 867.01,653.64 868.35,654.60 869.69,652.41 871.03,652.38 872.37,653.19 873.71,654.07 875.06,653.27 876.40,654.44 877.74,653.19 879.08,653.80 880.42,652.69 881.77,655.24 883.11,654.27 884.45,654.67 885.79,655.36 887.13,653.94 888.47,654.46 889.82,654.79 891.16,655.51 892.50,654.75 893.84,655.58 895.18,655.82 896.53,654.74 897.87,655.87 899.21,654.95 900.55,653.80 901.89,655.15 903.23,656.88 904.58,655.68 905.92,655.28 907.26,655.75 908.60,653.83 909.94,656.44 911.29,656.36 912.63,657.08 913.97,656.00 915.31,655.03 916.65,656.79 917.99,654.55 919.34,655.85 920.68,655.60 922.02,654.68 923.36,656.08 924.70,654.16 926.05,653.58 927.39,657.35 928.73,657.00 930.07,655.86 931.41,655.52 932.75,656.36 934.10,657.69 935.44,657.00 936.78,656.31 938.12,657.24 939.46,656.11 940.81,656.81 942.15,657.23 943.49,657.92 944.83,656.36 946.17,656.43 947.51,659.29 948.86,656.36 950.20,657.16 951.54,655.48 952.88,656.48 954.22,656.53 955.57,655.47 956.91,656.27 958.25,656.39 959.59,657.04 960.93,657.36 962.27,654.95 963.62,658.85 964.96,658.08 966.30,657.84 967.64,657.40 968.98,657.20 970.32,655.71 971.67,656.83 973.01,658.04 974.35,657.64 975.69,657.16 977.03,657.51 978.38,656.64 979.72,657.96 981.06,659.56 982.40,656.35 983.74,658.00 985.08,656.83 986.43,657.16 987.77,659.68 989.11,658.88 990.45,659.48 991.79,658.87 993.14,659.11 994.48,658.43 995.82,658.35 997.16,658.81 998.50,659.10 999.84,659.61 1001.19,659.59 1002.53,658.71 1003.87,658.52 1005.21,657.47 1006.55,658.07 1007.90,657.16 1009.24,657.35 1010.58,658.92 1011.92,657.35 1013.26,658.48 1014.60,659.16 1015.95,659.96 1017.29,658.36 1018.63,658.68 1019.97,657.80 1021.31,656.49 1022.66,658.28 1024.00,660.24 1025.34,659.67 1026.68,658.92 1028.02,660.00 1029.36,659.83 1030.71,660.28 1032.05,659.24 1033.39,661.03 1034.73,660.97 1035.00,660.97" fill="none" stroke="#202d3a" stroke-width="2"/>
<polyline points="85.00,456.25 86.07,458.34 87.42,460.92 88.76,463.47 90.10,465.99 91.44,468.48 92.78,470.94 94.12,473.37 95.47,475.77 96.81,478.14 98.15,480.47 99.49,482.79 100.83,485.07 102.18,487.32 103.52,489.55 104.86,491.74 106.20,493.91 107.54,496.06 108.88,498.18 110.23,500.27 111.57,502.33 112.91,504.37 114.25,506.39 115.59,508.38 116.94,510.34 118.28,512.29 119.62,514.20 120.96,516.10 122.30,517.97 123.64,519.81 124.99,521.64 126.33,523.44 127.67,525.22 129.01,526.97 130.35,528.71 131.70,530.42 133.04,532.12 134.38,533.79 135.72,535.44 137.06,537.07 138.40,538.68 139.75,540.27 141.09,541.85 142.43,543.40 143.77,544.93 145.11,546.44 146.45,547.94 147.80,549.42 149.14,550.87 150.48,552.31 151.82,553.74 153.16,555.14 154.51,556.53 155.85,557.90 157.19,559.25 158.53,560.59 159.87,561.91 161.21,563.21 162.56,564.50 163.90,565.77 165.24,567.03 166.58,568.27 167.92,569.49 169.27,570.70 170.61,571.90 171.95,573.08 173.29,574.25 174.63,575.40 175.97,576.53 177.32,577.66 178.66,578.77 180.00,579.86 181.34,580.94 182.68,582.01 184.03,583.07 185.37,584.11 186.71,585.14 188.05,586.16 189.39,587.16 190.73,588.15 192.08,589.13 193.42,590.10 194.76,591.06 196.10,592.00 197.44,592.93 198.79,593.85 200.13,594.76 201.47,595.66 202.81,596.55 204.15,597.42 205.49,598.29 206.84,599.14 208.18,599.99 209.52,600.82 210.86,601.64 212.20,602.45 213.55,603.26 214.89,604.05 216.23,604.83 217.57,605.61 218.91,606.37 220.25,607.13 221.60,607.87 222.94,608.61 224.28,609.33 225.62,610.05 226.96,610.76 228.31,611.46 229.65,612.15 230.99,612.83 232.33,613.51 233.67,614.18 235.01,614.83 236.36,615.48 237.70,616.13 239.04,616.76 240.38,617.39 241.72,618.00 243.07,618.61 244.41,619.22 245.75,619.81 247.09,620.40 248.43,620.98 249.77,621.56 251.12,622.12 252.46,622.68 253.80,623.24 255.14,623.78 256.48,624.32 257.82,624.85 259.17,625.38 260.51,625.90 261.85,626.41 263.19,626.92 264.53,627.42 265.88,627.91 267.22,628.40 268.56,628.88 269.90,629.36 271.24,629.83 272.58,630.30 273.93,630.75 275.27,631.21 276.61,631.66 277.95,632.10 279.29,632.53 280.64,632.96 281.98,633.39 283.32,633.81 284.66,634.23 286.00,634.64 287.34,635.04 288.69,635.44 290.03,635.84 291.37,636.23 292.71,636.61 294.05,636.99 295.40,637.37 296.74,637.74 298.08,638.11 299.42,638.47 300.76,638.83 302.10,639.18 303.45,639.53 304.79,639.88 306.13,640.22 307.47,640.55 308.81,640.88 310.16,641.21 311.50,641.54 312.84,641.86 314.18,642.17 315.52,642.48 316.86,642.79 318.21,643.10 319.55,643.40 320.89,643.69 322.23,643.99 323.57,644.28 324.92,644.56 326.26,644.84 327.60,645.12 328.94,645.40 330.28,645.67 331.62,645.94 332.97,646.21 334.31,646.47 335.65,646.73 336.99,646.98 338.33,647.24 339.68,647.48 341.02,647.73 342.36,647.97 343.70,648.21 345.04,648.45 346.38,648.69 347.73,648.92 349.07,649.15 350.41,649.37 351.75,649.60 353.09,649.82 354.44,650.03 355.78,650.25 357.12,650.46 358.46,650.67 359.80,650.88 361.14,651.08 362.49,651.28 363.83,651.48 365.17,651.68 366.51,651.87 367.85,652.07 369.20,652.26 370.54,652.44 371.88,652.63 373.22,652.81 374.56,652.99 375.90,653.17 377.25,653.35 378.59,653.52 379.93,653.69 381.27,653.86 382.61,654.03 383.95,654.20 385.30,654.36 386.64,654.52 387.98,654.68 389.32,654.84 390.66,654.99 392.01,655.15 393.35,655.30 394.69,655.45 396.03,655.60 397.37,655.74 398.71,655.89 400.06,656.03 401.40,656.17 402.74,656.31 404.08,656.45 405.42,656.58 406.77,656.72 408.11,656.85 409.45,656.98 410.79,657.11 412.13,657.24 413.47,657.36 414.82,657.49 416.16,657.61 417.50,657.73 418.84,657.85 420.18,657.97 421.53,658.08 422.87,658.20 424.21,658.31 425.55,658.43 426.89,658.54 428.23,658.65 429.58,658.76 430.92,658.86 432.26,658.97 433.60,659.07 434.94,659.18 436.29,659.28 437.63,659.38 438.97,659.48 440.31,659.58 441.65,659.67 442.99,659.77 444.34,659.86 445.68,659.96 447.02,660.05 448.36,660.14 449.70,660.23 451.05,660.32 452.39,660.41 453.73,660.49 455.07,660.58 456.41,660.66 457.75,660.75 459.10,660.83 460.44,660.91 461.78,660.99 463.12,661.07 464.46,661.15 465.81,661.23 467.15,661.30 468.49,661.38 469.83,661.45 471.17,661.53 472.51,661.60 473.86,661.67 475.20,661.74 476.54,661.81 477.88,661.88 479.22,661.95 480.56,662.02 481.91,662.09 483.25,662.15 484.59,662.22 485.93,662.28 487.27,662.34 488.62,662.41 489.96,662.47 491.30,662.53 492.64,662.59 493.98,662.65 495.33,662.71 496.67,662.77 498.01,662.83 499.35,662.88 500.69,662.94 502.03,662.99 503.38,663.05 504.72,663.10 506.06,663.16 507.40,663.21 508.74,663.26 510.08,663.31 511.43,663.36 512.77,663.41 514.11,663.46 515.45,663.51 516.79,663.56 518.14,663.61 519.48,663.65 520.82,663.70 522.16,663.75 523.50,663.79 524.84,663.84 526.19,663.88 527.53,663.93 528.87,663.97 530.21,664.01 531.55,664.05 532.90,664.10 534.24,664.14 535.58,664.18 536.92,664.22 538.26,664.26 539.60,664.30 540.95,664.33 542.29,664.37 543.63,664.41 544.97,664.45 546.31,664.48 547.66,664.52 549.00,664.56 550.34,664.59 551.68,664.63 553.02,664.66 554.36,664.70 555.71,664.73 557.05,664.76 558.39,664.80 559.73,664.83 561.07,664.86 562.42,664.89 563.76,664.92 565.10,664.95 566.44,664.98 567.78,665.01 569.12,665.04 570.47,665.07 571.81,665.10 573.15,665.13 574.49,665.16 575.83,665.19 577.18,665.22 578.52,665.24 579.86,665.27 581.20,665.30 582.54,665.32 583.88,665.35 585.23,665.37 586.57,665.40 587.91,665.42 589.25,665.45 590.59,665.47 591.94,665.50 593.28,665.52 594.62,665.54 595.96,665.57 597.30,665.59 598.64,665.61 599.99,665.64 601.33,665.66 602.67,665.68 604.01,665.70 605.35,665.72 606.69,665.74 608.04,665.76 609.38,665.78 610.72,665.80 612.06,665.82 613.40,665.84 614.75,665.86 616.09,665.88 617.43,665.90 618.77,665.92 620.11,665.94 621.45,665.96 622.80,665.98 624.14,665.99 625.48,666.01 626.82,666.03 628.16,666.05 629.51,666.06 630.85,666.08 632.19,666.10 633.53,666.11 634.87,666.13 636.21,666.15 637.56,666.16 638.90,666.18 640.24,666.19 641.58,666.21 642.92,666.22 644.27,666.24 645.61,666.25 646.95,666.27 648.29,666.28 649.63,666.29 650.97,666.31 652.32,666.32 653.66,666.34 655.00,666.35 656.34,666.36 657.68,666.38 659.03,666.39 660.37,666.40 661.71,666.41 663.05,666.43 664.39,666.44 665.73,666.45 667.08,666.46 668.42,666.47 669.76,666.49 671.10,666.50 672.44,666.51 673.79,666.52 675.13,666.53 676.47,666.54 677.81,666.55 679.15,666.56 680.49,666.58 681.84,666.59 683.18,666.60 684.52,666.61 685.86,666.62 687.20,666.63 688.55,666.64 689.89,666.65 691.23,666.66 692.57,666.66 693.91,666.67 695.25,666.68 696.60,666.69 697.94,666.70 699.28,666.71 700.62,666.72 701.96,666.73 703.31,666.74 704.65,666.75 705.99,666.75 707.33,666.76 708.67,666.77 710.01,666.78 711.36,666.79 712.70,666.79 714.04,666.80 715.38,666.81 716.72,666.82 718.07,666.82 719.41,666.83 720.75,666.84 722.09,666.85 723.43,666.85 724.77,666.86 726.12,666.87 727.46,666.87 728.80,666.88 730.14,666.89 731.48,666.89 732.82,666.90 734.17,666.91 735.51,666.91 736.85,666.92 738.19,666.93 739.53,666.93 740.88,666.94 742.22,666.94 743.56,666.95 744.90,666.96 746.24,666.96 747.58,666.97 748.93,666.97 750.27,666.98 751.61,666.98 752.95,666.99 754.29,666.99 755.64,667.00 756.98,667.01 758.32,667.01 759.66,667.02 761.00,667.02 762.34,667.03 763.69,667.03 765.03,667.04 766.37,667.04 767.71,667.04 769.05,667.05 770.40,667.05 771.74,667.06 773.08,667.06 774.42,667.07 775.76,667.07 777.10,667.08 778.45,667.08 779.79,667.08 781.13,667.09 782.47,667.09 783.81,667.10 785.16,667.10 786.50,667.11 787.84,667.11 789.18,667.11 790.52,667.12 791.86,667.12 793.21,667.12 794.55,667.13 795.89,667.13 797.23,667.14 798.57,667.14 799.92,667.14 801.26,667.15 802.60,667.15 803.94,667.15 805.28,667.16 806.62,667.16 807.97,667.16 809.31,667.17 810.65,667.17 811.99,667.17 813.33,667.17 814.68,667.18 816.02,667.18 817.36,667.18 818.70,667.19 820.04,667.19 821.38,667.19 822.73,667.20 824.07,667.20 825.41,667.20 826.75,667.20 828.09,667.21 829.44,667.21 830.78,667.21 832.12,667.21 833.46,667.22 834.80,667.22 836.14,667.22 837.49,667.22 838.83,667.23 840.17,667.23 841.51,667.23 842.85,667.23 844.19,667.24 845.54,667.24 846.88,667.24 848.22,667.24 849.56,667.25 850.90,667.25 852.25,667.25 853.59,667.25 854.93,667.25 856.27,667.26 857.61,667.26 858.96,667.26 860.30,667.26 861.64,667.26 862.98,667.27 864.32,667.27 865.66,667.27 867.01,667.27 868.35,667.27 869.69,667.28 871.03,667.28 872.37,667.28 873.71,667.28 875.06,667.28 876.40,667.28 877.74,667.29 879.08,667.29 880.42,667.29 881.77,667.29 883.11,667.29 884.45,667.29 885.79,667.30 887.13,667.30 888.47,667.30 889.82,667.30 891.16,667.30 892.50,667.30 893.84,667.31 895.18,667.31 896.53,667.31 897.87,667.31 899.21,667.31 900.55,667.31 901.89,667.31 903.23,667.31 904.58,667.32 905.92,667.32 907.26,667.32 908.60,667.32 909.94,667.32 911.29,667.32 912.63,667.32 913.97,667.32 915.31,667.33 916.65,667.33 917.99,667.33 919.34,667.33 920.68,667.33 922.02,667.33 923.36,667.33 924.70,667.33 926.05,667.34 927.39,667.34 928.73,667.34 930.07,667.34 931.41,667.34 932.75,667.34 934.10,667.34 935.44,667.34 936.78,667.34 938.12,667.34 939.46,667.35 940.81,667.35 942.15,667.35 943.49,667.35 944.83,667.35 946.17,667.35 947.51,667.35 948.86,667.35 950.20,667.35 951.54,667.35 952.88,667.35 954.22,667.36 955.57,667.36 956.91,667.36 958.25,667.36 959.59,667.36 960.93,667.36 962.27,667.36 963.62,667.36 964.96,667.36 966.30,667.36 967.64,667.36 968.98,667.36 970.32,667.36 971.67,667.37 973.01,667.37 974.35,667.37 975.69,667.37 977.03,667.37 978.38,667.37 979.72,667.37 981.06,667.37 982.40,667.37 983.74,667.37 985.08,667.37 986.43,667.37 987.77,667.37 989.11,667.37 990.45,667.37 991.79,667.37 993.14,667.38 994.48,667.38 995.82,667.38 997.16,667.38 998.50,667.38 999.84,667.38 1001.19,667.38 1002.53,667.38 1003.87,667.38 1005.21,667.38 1006.55,667.38 1007.90,667.38 1009.24,667.38 1010.58,667.38 1011.92,667.38 1013.26,667.38 1014.60,667.38 1015.95,667.38 1017.29,667.38 1018.63,667.39 1019.97,667.39 1021.31,667.39 1022.66,667.39 1024.00,667.39 1025.34,667.39 1026.68,667.39 1028.02,667.39 1029.36,667.39 1030.71,667.39 1032.05,667.39 1033.39,667.39 1034.73,667.39 1035.00,667.39" fill="none" stroke="#007f80" stroke-width="2"/>
<polyline points="85.00,456.25 86.07,457.35 87.42,458.73 88.76,460.10 90.10,461.46 91.44,462.81 92.78,464.15 94.12,465.48 95.47,466.80 96.81,468.12 98.15,469.42 99.49,470.72 100.83,472.01 102.18,473.29 103.52,474.56 104.86,475.83 106.20,477.08 107.54,478.33 108.88,479.57 110.23,480.80 111.57,482.02 112.91,483.24 114.25,484.44 115.59,485.64 116.94,486.83 118.28,488.02 119.62,489.19 120.96,490.36 122.30,491.52 123.64,492.67 124.99,493.82 126.33,494.96 127.67,496.09 129.01,497.21 130.35,498.32 131.70,499.43 133.04,500.53 134.38,501.63 135.72,502.71 137.06,503.79 138.40,504.86 139.75,505.93 141.09,506.99 142.43,508.04 143.77,509.08 145.11,510.12 146.45,511.15 147.80,512.18 149.14,513.19 150.48,514.20 151.82,515.21 153.16,516.20 154.51,517.20 155.85,518.18 157.19,519.16 158.53,520.13 159.87,521.09 161.21,522.05 162.56,523.01 163.90,523.95 165.24,524.89 166.58,525.83 167.92,526.75 169.27,527.68 170.61,528.59 171.95,529.50 173.29,530.41 174.63,531.30 175.97,532.19 177.32,533.08 178.66,533.96 180.00,534.84 181.34,535.70 182.68,536.57 184.03,537.43 185.37,538.28 186.71,539.12 188.05,539.96 189.39,540.80 190.73,541.63 192.08,542.45 193.42,543.27 194.76,544.09 196.10,544.89 197.44,545.70 198.79,546.49 200.13,547.29 201.47,548.07 202.81,548.86 204.15,549.63 205.49,550.40 206.84,551.17 208.18,551.93 209.52,552.69 210.86,553.44 212.20,554.19 213.55,554.93 214.89,555.67 216.23,556.40 217.57,557.13 218.91,557.85 220.25,558.57 221.60,559.28 222.94,559.99 224.28,560.69 225.62,561.39 226.96,562.09 228.31,562.78 229.65,563.46 230.99,564.14 232.33,564.82 233.67,565.49 235.01,566.16 236.36,566.83 237.70,567.48 239.04,568.14 240.38,568.79 241.72,569.44 243.07,570.08 244.41,570.72 245.75,571.35 247.09,571.98 248.43,572.60 249.77,573.23 251.12,573.84 252.46,574.46 253.80,575.07 255.14,575.67 256.48,576.27 257.82,576.87 259.17,577.46 260.51,578.05 261.85,578.64 263.19,579.22 264.53,579.80 265.88,580.37 267.22,580.94 268.56,581.51 269.90,582.07 271.24,582.63 272.58,583.19 273.93,583.74 275.27,584.29 276.61,584.83 277.95,585.37 279.29,585.91 280.64,586.44 281.98,586.98 283.32,587.50 284.66,588.03 286.00,588.55 287.34,589.06 288.69,589.58 290.03,590.09 291.37,590.59 292.71,591.10 294.05,591.60 295.40,592.09 296.74,592.59 298.08,593.08 299.42,593.56 300.76,594.05 302.10,594.53 303.45,595.01 304.79,595.48 306.13,595.95 307.47,596.42 308.81,596.89 310.16,597.35 311.50,597.81 312.84,598.26 314.18,598.72 315.52,599.17 316.86,599.61 318.21,600.06 319.55,600.50 320.89,600.94 322.23,601.37 323.57,601.81 324.92,602.24 326.26,602.66 327.60,603.09 328.94,603.51 330.28,603.93 331.62,604.35 332.97,604.76 334.31,605.17 335.65,605.58 336.99,605.98 338.33,606.39 339.68,606.78 341.02,607.18 342.36,607.58 343.70,607.97 345.04,608.36 346.38,608.75 347.73,609.13 349.07,609.51 350.41,609.89 351.75,610.27 353.09,610.64 354.44,611.02 355.78,611.38 357.12,611.75 358.46,612.12 359.80,612.48 361.14,612.84 362.49,613.20 363.83,613.55 365.17,613.91 366.51,614.26 367.85,614.60 369.20,614.95 370.54,615.29 371.88,615.64 373.22,615.98 374.56,616.31 375.90,616.65 377.25,616.98 378.59,617.31 379.93,617.64 381.27,617.96 382.61,618.29 383.95,618.61 385.30,618.93 386.64,619.25 387.98,619.56 389.32,619.88 390.66,620.19 392.01,620.50 393.35,620.81 394.69,621.11 396.03,621.42 397.37,621.72 398.71,622.02 400.06,622.31 401.40,622.61 402.74,622.90 404.08,623.19 405.42,623.48 406.77,623.77 408.11,624.06 409.45,624.34 410.79,624.62 412.13,624.91 413.47,625.18 414.82,625.46 416.16,625.74 417.50,626.01 418.84,626.28 420.18,626.55 421.53,626.82 422.87,627.08 424.21,627.35 425.55,627.61 426.89,627.87 428.23,628.13 429.58,628.39 430.92,628.64 432.26,628.90 433.60,629.15 434.94,629.40 436.29,629.65 437.63,629.90 438.97,630.14 440.31,630.39 441.65,630.63 442.99,630.87 444.34,631.11 445.68,631.35 447.02,631.59 448.36,631.82 449.70,632.05 451.05,632.29 452.39,632.52 453.73,632.74 455.07,632.97 456.41,633.20 457.75,633.42 459.10,633.64 460.44,633.87 461.78,634.09 463.12,634.30 464.46,634.52 465.81,634.74 467.15,634.95 468.49,635.16 469.83,635.37 471.17,635.58 472.51,635.79 473.86,636.00 475.20,636.21 476.54,636.41 477.88,636.61 479.22,636.82 480.56,637.02 481.91,637.22 483.25,637.41 484.59,637.61 485.93,637.81 487.27,638.00 488.62,638.19 489.96,638.38 491.30,638.57 492.64,638.76 493.98,638.95 495.33,639.14 496.67,639.32 498.01,639.51 499.35,639.69 500.69,639.87 502.03,640.05 503.38,640.23 504.72,640.41 506.06,640.59 507.40,640.76 508.74,640.94 510.08,641.11 511.43,641.28 512.77,641.45 514.11,641.63 515.45,641.79 516.79,641.96 518.14,642.13 519.48,642.29 520.82,642.46 522.16,642.62 523.50,642.79 524.84,642.95 526.19,643.11 527.53,643.27 528.87,643.42 530.21,643.58 531.55,643.74 532.90,643.89 534.24,644.05 535.58,644.20 536.92,644.35 538.26,644.50 539.60,644.65 540.95,644.80 542.29,644.95 543.63,645.10 544.97,645.25 546.31,645.39 547.66,645.53 549.00,645.68 550.34,645.82 551.68,645.96 553.02,646.10 554.36,646.24 555.71,646.38 557.05,646.52 558.39,646.66 559.73,646.79 561.07,646.93 562.42,647.06 563.76,647.20 565.10,647.33 566.44,647.46 567.78,647.59 569.12,647.72 570.47,647.85 571.81,647.98 573.15,648.10 574.49,648.23 575.83,648.36 577.18,648.48 578.52,648.61 579.86,648.73 581.20,648.85 582.54,648.97 583.88,649.09 585.23,649.21 586.57,649.33 587.91,649.45 589.25,649.57 590.59,649.69 591.94,649.80 593.28,649.92 594.62,650.03 595.96,650.15 597.30,650.26 598.64,650.37 599.99,650.48 601.33,650.60 602.67,650.71 604.01,650.82 605.35,650.92 606.69,651.03 608.04,651.14 609.38,651.25 610.72,651.35 612.06,651.46 613.40,651.56 614.75,651.67 616.09,651.77 617.43,651.87 618.77,651.97 620.11,652.08 621.45,652.18 622.80,652.28 624.14,652.38 625.48,652.47 626.82,652.57 628.16,652.67 629.51,652.77 630.85,652.86 632.19,652.96 633.53,653.05 634.87,653.15 636.21,653.24 637.56,653.33 638.90,653.42 640.24,653.52 641.58,653.61 642.92,653.70 644.27,653.79 645.61,653.88 646.95,653.97 648.29,654.05 649.63,654.14 650.97,654.23 652.32,654.32 653.66,654.40 655.00,654.49 656.34,654.57 657.68,654.66 659.03,654.74 660.37,654.82 661.71,654.91 663.05,654.99 664.39,655.07 665.73,655.15 667.08,655.23 668.42,655.31 669.76,655.39 671.10,655.47 672.44,655.55 673.79,655.62 675.13,655.70 676.47,655.78 677.81,655.85 679.15,655.93 680.49,656.01 681.84,656.08 683.18,656.15 684.52,656.23 685.86,656.30 687.20,656.37 688.55,656.45 689.89,656.52 691.23,656.59 692.57,656.66 693.91,656.73 695.25,656.80 696.60,656.87 697.94,656.94 699.28,657.01 700.62,657.08 701.96,657.15 703.31,657.21 704.65,657.28 705.99,657.35 707.33,657.41 708.67,657.48 710.01,657.54 711.36,657.61 712.70,657.67 714.04,657.74 715.38,657.80 716.72,657.86 718.07,657.93 719.41,657.99 720.75,658.05 722.09,658.11 723.43,658.17 724.77,658.23 726.12,658.29 727.46,658.35 728.80,658.41 730.14,658.47 731.48,658.53 732.82,658.59 734.17,658.65 735.51,658.70 736.85,658.76 738.19,658.82 739.53,658.87 740.88,658.93 742.22,658.99 743.56,659.04 744.90,659.10 746.24,659.15 747.58,659.20 748.93,659.26 750.27,659.31 751.61,659.36 752.95,659.42 754.29,659.47 755.64,659.52 756.98,659.57 758.32,659.63 759.66,659.68 761.00,659.73 762.34,659.78 763.69,659.83 765.03,659.88 766.37,659.93 767.71,659.98 769.05,660.02 770.40,660.07 771.74,660.12 773.08,660.17 774.42,660.22 775.76,660.26 777.10,660.31 778.45,660.36 779.79,660.40 781.13,660.45 782.47,660.50 783.81,660.54 785.16,660.59 786.50,660.63 787.84,660.68 789.18,660.72 790.52,660.76 791.86,660.81 793.21,660.85 794.55,660.89 795.89,660.94 797.23,660.98 798.57,661.02 799.92,661.06 801.26,661.10 802.60,661.15 803.94,661.19 805.28,661.23 806.62,661.27 807.97,661.31 809.31,661.35 810.65,661.39 811.99,661.43 813.33,661.47 814.68,661.51 816.02,661.55 817.36,661.58 818.70,661.62 820.04,661.66 821.38,661.70 822.73,661.74 824.07,661.77 825.41,661.81 826.75,661.85 828.09,661.88 829.44,661.92 830.78,661.96 832.12,661.99 833.46,662.03 834.80,662.06 836.14,662.10 837.49,662.13 838.83,662.17 840.17,662.20 841.51,662.24 842.85,662.27 844.19,662.30 845.54,662.34 846.88,662.37 848.22,662.40 849.56,662.44 850.90,662.47 852.25,662.50 853.59,662.53 854.93,662.57 856.27,662.60 857.61,662.63 858.96,662.66 860.30,662.69 861.64,662.72 862.98,662.75 864.32,662.78 865.66,662.81 867.01,662.84 868.35,662.87 869.69,662.90 871.03,662.93 872.37,662.96 873.71,662.99 875.06,663.02 876.40,663.05 877.74,663.08 879.08,663.11 880.42,663.14 881.77,663.16 883.11,663.19 884.45,663.22 885.79,663.25 887.13,663.27 888.47,663.30 889.82,663.33 891.16,663.36 892.50,663.38 893.84,663.41 895.18,663.43 896.53,663.46 897.87,663.49 899.21,663.51 900.55,663.54 901.89,663.56 903.23,663.59 904.58,663.61 905.92,663.64 907.26,663.66 908.60,663.69 909.94,663.71 911.29,663.74 912.63,663.76 913.97,663.79 915.31,663.81 916.65,663.83 917.99,663.86 919.34,663.88 920.68,663.90 922.02,663.93 923.36,663.95 924.70,663.97 926.05,663.99 927.39,664.02 928.73,664.04 930.07,664.06 931.41,664.08 932.75,664.11 934.10,664.13 935.44,664.15 936.78,664.17 938.12,664.19 939.46,664.21 940.81,664.23 942.15,664.25 943.49,664.28 944.83,664.30 946.17,664.32 947.51,664.34 948.86,664.36 950.20,664.38 951.54,664.40 952.88,664.42 954.22,664.44 955.57,664.46 956.91,664.48 958.25,664.49 959.59,664.51 960.93,664.53 962.27,664.55 963.62,664.57 964.96,664.59 966.30,664.61 967.64,664.63 968.98,664.64 970.32,664.66 971.67,664.68 973.01,664.70 974.35,664.72 975.69,664.73 977.03,664.75 978.38,664.77 979.72,664.79 981.06,664.80 982.40,664.82 983.74,664.84 985.08,664.86 986.43,664.87 987.77,664.89 989.11,664.91 990.45,664.92 991.79,664.94 993.14,664.95 994.48,664.97 995.82,664.99 997.16,665.00 998.50,665.02 999.84,665.03 1001.19,665.05 1002.53,665.07 1003.87,665.08 1005.21,665.10 1006.55,665.11 1007.90,665.13 1009.24,665.14 1010.58,665.16 1011.92,665.17 1013.26,665.19 1014.60,665.20 1015.95,665.22 1017.29,665.23 1018.63,665.24 1019.97,665.26 1021.31,665.27 1022.66,665.29 1024.00,665.30 1025.34,665.31 1026.68,665.33 1028.02,665.34 1029.36,665.36 1030.71,665.37 1032.05,665.38 1033.39,665.40 1034.73,665.41 1035.00,665.41" fill="none" stroke="#bc4b26" stroke-width="2"/>
<text x="20" y="557.5" font-size="13" transform="rotate(-90 20 557.5)" text-anchor="middle">Skin temperature (°C)</text>
<text x="85" y="424" font-size="17">preceding rest skin proxy: baseline 25.193 °C; transferred effective tau 402.1 s</text>
<text x="515" y="720" font-size="14">Rest step time (s)</text>
<text x="60" y="750" font-size="15">Black: measured skin · Teal: transferred decay · Orange: frozen h=15 analytic prior</text>
<text x="60" y="775" font-size="14">All three time windows check frozen k2 rates; no k1 rate, offset or ambient fitting.</text>
<text x="60" y="805" font-size="13">Display: every fifth source sample; full CSV retained. Separate-cell transfer, not blind validation.</text>
</g></svg>
